<?xml version="1.0" encoding="UTF-8"?>
<svg id="Layer_1" data-name="Layer 1" xmlns="http://www.w3.org/2000/svg" viewBox="0 0 278.9 72.2">
  <defs>
    <style>
      .cls-1 {
        fill: #fff;
      }

      .cls-2 {
        fill: #ce915b;
      }

      .cls-3 {
        fill: #4a9cd6;
      }
    </style>
  </defs>
  <path class="cls-1" d="m24.47,16.7c-.67,1.41-1.6,2.59-2.78,3.54-1.18.95-2.56,1.66-4.14,2.14-1.58.48-3.27.71-5.08.71h-5.38v9.66H0V.55h13.16c1.93,0,3.66.27,5.17.81,1.52.54,2.81,1.3,3.86,2.28,1.06.98,1.87,2.15,2.44,3.52.57,1.37.85,2.88.85,4.53v.09c0,1.87-.34,3.51-1.01,4.92Zm-6.16-4.88c0-1.59-.51-2.81-1.54-3.63-1.03-.83-2.43-1.24-4.21-1.24h-5.47v9.84h5.61c1.78,0,3.16-.47,4.14-1.4.98-.94,1.47-2.09,1.47-3.47v-.09Z"/>
  <path class="cls-1" d="m62.24,23.11c-.86,2.01-2.05,3.77-3.56,5.29s-3.33,2.71-5.43,3.59c-2.1.87-4.39,1.31-6.88,1.31s-4.77-.44-6.85-1.31c-2.09-.87-3.89-2.05-5.4-3.54-1.52-1.49-2.7-3.24-3.54-5.24-.84-2.01-1.27-4.16-1.27-6.46v-.09c0-2.3.43-4.45,1.29-6.46.86-2.01,2.05-3.77,3.56-5.29s3.33-2.71,5.43-3.59c2.1-.87,4.39-1.31,6.88-1.31s4.77.44,6.85,1.31c2.08.87,3.89,2.05,5.4,3.54,1.52,1.49,2.7,3.24,3.54,5.24.84,2.01,1.27,4.16,1.27,6.46v.09c0,2.3-.43,4.46-1.29,6.46Zm-6.12-6.46c0-1.38-.24-2.68-.71-3.91-.48-1.23-1.15-2.3-2.02-3.22s-1.91-1.65-3.1-2.19c-1.2-.54-2.5-.81-3.91-.81s-2.75.26-3.93.78c-1.18.52-2.19,1.24-3.04,2.16-.84.92-1.5,1.99-1.98,3.2-.48,1.21-.71,2.51-.71,3.89v.09c0,1.38.24,2.68.71,3.91.48,1.23,1.15,2.3,2.02,3.22.87.92,1.9,1.65,3.08,2.19,1.18.54,2.49.81,3.93.81s2.71-.26,3.91-.78c1.2-.52,2.22-1.24,3.06-2.16.84-.92,1.5-1.99,1.98-3.2.48-1.21.71-2.51.71-3.89v-.09Z"/>
  <path class="cls-1" d="m89.38,32.75l-6.9-10.3h-5.57v10.3h-7.08V.55h14.72c3.83,0,6.82.94,8.95,2.81,2.13,1.87,3.2,4.48,3.2,7.82v.09c0,2.61-.64,4.73-1.91,6.37-1.27,1.64-2.94,2.84-4.99,3.61l7.87,11.5h-8.28Zm.14-21.21c0-1.53-.49-2.68-1.47-3.45-.98-.77-2.35-1.15-4.09-1.15h-7.04v9.25h7.18c1.75,0,3.09-.41,4.02-1.24.94-.83,1.4-1.93,1.4-3.31v-.09Z"/>
  <path class="cls-1" d="m117.67,7.08v25.67h-7.08V7.08h-9.8V.55h26.68v6.53h-9.8Z"/>
  <path class="cls-1" d="m139.98,6.95v6.95h15.36v6.39h-15.36v12.47h-7.08V.55h24.52v6.39h-17.43Z"/>
  <path class="cls-1" d="m194.58,23.11c-.86,2.01-2.05,3.77-3.56,5.29-1.52,1.52-3.33,2.71-5.43,3.59s-4.39,1.31-6.88,1.31-4.77-.44-6.85-1.31-3.89-2.05-5.4-3.54c-1.52-1.49-2.7-3.24-3.54-5.24-.84-2.01-1.26-4.16-1.26-6.46v-.09c0-2.3.43-4.45,1.29-6.46.86-2.01,2.05-3.77,3.57-5.29s3.33-2.71,5.43-3.59c2.1-.87,4.39-1.31,6.88-1.31s4.77.44,6.85,1.31c2.08.87,3.89,2.05,5.4,3.54,1.52,1.49,2.7,3.24,3.54,5.24.84,2.01,1.26,4.16,1.26,6.46v.09c0,2.3-.43,4.46-1.29,6.46Zm-6.12-6.46c0-1.38-.24-2.68-.71-3.91s-1.15-2.3-2.02-3.22c-.87-.92-1.91-1.65-3.1-2.19-1.2-.54-2.5-.81-3.91-.81s-2.75.26-3.93.78c-1.18.52-2.19,1.24-3.04,2.16-.84.92-1.5,1.99-1.98,3.2-.48,1.21-.71,2.51-.71,3.89v.09c0,1.38.24,2.68.71,3.91.47,1.23,1.15,2.3,2.02,3.22.87.92,1.9,1.65,3.08,2.19,1.18.54,2.49.81,3.93.81s2.71-.26,3.91-.78c1.2-.52,2.22-1.24,3.06-2.16.84-.92,1.5-1.99,1.98-3.2.48-1.21.71-2.51.71-3.89v-.09Z"/>
  <path class="cls-1" d="m202.17,32.75V.55h7.08v25.81h16.05v6.39h-23.14Z"/>
  <path class="cls-1" d="m230.96,32.75V.55h7.08v32.2h-7.08Z"/>
  <path class="cls-1" d="m277.61,23.11c-.86,2.01-2.05,3.77-3.57,5.29-1.52,1.52-3.33,2.71-5.43,3.59s-4.39,1.31-6.88,1.31-4.77-.44-6.85-1.31c-2.09-.87-3.89-2.05-5.41-3.54-1.52-1.49-2.7-3.24-3.54-5.24-.84-2.01-1.26-4.16-1.26-6.46v-.09c0-2.3.43-4.45,1.29-6.46.86-2.01,2.05-3.77,3.57-5.29s3.33-2.71,5.43-3.59,4.39-1.31,6.88-1.31,4.77.44,6.85,1.31c2.08.87,3.89,2.05,5.41,3.54,1.52,1.49,2.7,3.24,3.54,5.24.84,2.01,1.26,4.16,1.26,6.46v.09c0,2.3-.43,4.46-1.29,6.46Zm-6.12-6.46c0-1.38-.24-2.68-.71-3.91s-1.15-2.3-2.02-3.22-1.91-1.65-3.1-2.19c-1.2-.54-2.5-.81-3.91-.81s-2.75.26-3.93.78c-1.18.52-2.19,1.24-3.04,2.16-.84.92-1.5,1.99-1.98,3.2-.48,1.21-.71,2.51-.71,3.89v.09c0,1.38.24,2.68.71,3.91.47,1.23,1.15,2.3,2.02,3.22.87.92,1.9,1.65,3.08,2.19,1.18.54,2.49.81,3.93.81s2.71-.26,3.91-.78c1.2-.52,2.21-1.24,3.06-2.16.84-.92,1.5-1.99,1.98-3.2.48-1.21.71-2.51.71-3.89v-.09Z"/>
  <path class="cls-1" d="m9.78,58.37l9.08,5.03c.46.26.76.48.91.68.15.2.23.46.23.77,0,.39-.14.73-.42,1.02-.28.29-.61.43-.98.43-.25,0-.62-.14-1.11-.41l-13.52-7.52,13.52-7.52c.49-.26.86-.4,1.09-.4.38,0,.72.14,1,.42.28.28.42.62.42,1.01,0,.31-.08.57-.23.77-.15.2-.45.43-.91.68l-9.08,5.03Z"/>
  <path class="cls-3" d="m36.58,61.22v3.76c-1.27.68-2.34,1.15-3.23,1.4-.89.25-1.85.38-2.88.38-1.43,0-2.76-.21-3.98-.64-.96-.33-1.71-.74-2.26-1.24-.55-.5-1.06-1.24-1.52-2.22-.46-.98-.7-2.08-.7-3.29v-2.02c0-1.87.57-3.54,1.71-5,1.53-1.99,3.61-2.98,6.25-2.98.77,0,1.49.08,2.18.23.69.16,1.34.39,1.96.7.37-.34.74-.51,1.09-.51.41,0,.74.14,1,.42.25.28.38.76.38,1.44v1.82c0,.68-.13,1.16-.39,1.44s-.59.43-1,.43c-.33,0-.61-.1-.85-.3-.18-.14-.33-.44-.46-.91-.12-.47-.26-.79-.42-.95-.25-.26-.68-.5-1.31-.7-.62-.21-1.32-.31-2.1-.31-1.11,0-2.08.23-2.9.68-.58.34-1.12.93-1.61,1.76-.49.84-.74,1.75-.74,2.73v2.02c0,1.5.44,2.65,1.31,3.43.87.78,2.25,1.17,4.15,1.17,1.29,0,2.46-.24,3.51-.72v-2.01h-2.86c-.67,0-1.16-.13-1.44-.39s-.43-.6-.43-1.02.14-.76.43-1.02.77-.39,1.44-.39h4.98c.67.01,1.16.14,1.44.4.29.26.43.59.43,1.01,0,.33-.1.62-.29.86-.2.25-.49.43-.9.55Z"/>
  <path class="cls-3" d="m45.74,53.94v1.75c1.18-.85,2.1-1.41,2.78-1.7.68-.28,1.31-.42,1.91-.42.91,0,1.8.34,2.65,1.01.58.46.88.92.88,1.39,0,.4-.14.74-.42,1.02-.28.28-.61.42-1,.42-.35,0-.71-.17-1.09-.52-.38-.35-.72-.52-1.03-.52-.39,0-.98.25-1.76.74s-1.75,1.23-2.92,2.21v4.22h3.99c.67,0,1.16.13,1.44.39s.43.6.43,1.02-.14.75-.43,1.01-.77.39-1.44.39h-8.46c-.67,0-1.16-.13-1.44-.39s-.43-.6-.43-1.02.14-.74.43-1,.77-.39,1.44-.39h1.67v-6.81h-1.01c-.67,0-1.16-.13-1.44-.39s-.43-.6-.43-1.02.14-.74.43-1,.77-.39,1.44-.39h3.81Z"/>
  <path class="cls-3" d="m70.4,60.38c0,1.08-.3,2.12-.9,3.12-.6,1.01-1.49,1.81-2.67,2.41-1.18.6-2.41.89-3.7.89s-2.5-.29-3.66-.88c-1.17-.59-2.06-1.39-2.67-2.4-.61-1.01-.92-2.07-.92-3.17s.31-2.22.93-3.3c.62-1.08,1.51-1.93,2.67-2.55,1.16-.62,2.38-.93,3.64-.93s2.5.32,3.68.95c1.18.63,2.07,1.49,2.67,2.56.6,1.07.9,2.17.9,3.3Zm-2.8.01c0-.9-.32-1.73-.97-2.49-.88-1.02-2.05-1.53-3.49-1.53-1.27,0-2.32.41-3.17,1.22-.85.81-1.27,1.75-1.27,2.82,0,.88.43,1.69,1.29,2.46.86.76,1.91,1.14,3.16,1.14s2.31-.38,3.17-1.14c.86-.76,1.29-1.58,1.29-2.47Z"/>
  <path class="cls-3" d="m85.88,53.94v9.61c.59,0,1.03.13,1.31.4.28.27.42.6.42,1.01s-.14.75-.43,1.01-.77.39-1.44.39h-2.67v-.64c-.8.37-1.57.64-2.3.82-.73.18-1.42.27-2.08.27-.92,0-1.72-.19-2.39-.58-.67-.39-1.21-.92-1.6-1.61-.28-.49-.42-1.11-.42-1.85v-6.03h-.48c-.67,0-1.16-.13-1.44-.39s-.43-.6-.43-1.02.14-.74.43-1,.77-.39,1.44-.39h3.28v8.34c0,.59.14,1.03.43,1.31.29.28.73.42,1.32.42s1.17-.11,1.83-.33c.65-.22,1.46-.63,2.41-1.21v-5.71h-1.01c-.67,0-1.16-.13-1.44-.39s-.43-.6-.43-1.02.14-.74.43-1,.77-.39,1.44-.39h3.81Z"/>
  <path class="cls-3" d="m93.25,64.81v4.59h1.68c.67,0,1.16.13,1.44.39s.43.6.43,1.02-.14.75-.43,1.01-.77.39-1.44.39h-4.96c-.67,0-1.16-.13-1.44-.39s-.43-.6-.43-1.01.15-.76.44-1.02.77-.39,1.44-.39h.48v-12.66h-.48c-.67,0-1.16-.13-1.44-.39s-.43-.6-.43-1.02.14-.74.43-1,.77-.39,1.44-.39h3.28v.96c.66-.45,1.33-.78,2.04-1,.7-.22,1.42-.33,2.16-.33,1.91,0,3.55.65,4.89,1.95,1.35,1.3,2.02,2.79,2.02,4.46,0,1.85-.8,3.38-2.39,4.58-1.33,1-2.83,1.5-4.5,1.5-.72,0-1.43-.1-2.13-.31-.7-.21-1.4-.52-2.09-.94Zm8.31-4.81c0-.39-.16-.89-.46-1.5-.31-.61-.79-1.11-1.43-1.52-.64-.41-1.4-.61-2.26-.61-1.39,0-2.5.53-3.32,1.57-.56.72-.83,1.41-.83,2.08,0,.75.4,1.47,1.2,2.18.8.71,1.78,1.06,2.96,1.06s2.17-.35,2.97-1.05c.79-.7,1.19-1.44,1.19-2.21Z"/>
  <path class="cls-3" d="m120.56,61.57h-11.5c.29.73.81,1.32,1.55,1.76.74.45,1.75.67,3.01.67,1.04,0,2.42-.22,4.14-.67.71-.18,1.2-.27,1.48-.27.37,0,.69.13.94.4.25.27.38.6.38,1,0,.37-.14.68-.41.93-.36.34-1.25.66-2.67.96-1.41.3-2.77.46-4.07.46-2.24,0-4.04-.63-5.38-1.9-1.34-1.27-2.02-2.82-2.02-4.68,0-1.97.73-3.57,2.18-4.8,1.45-1.24,3.13-1.85,5.02-1.85,1.14,0,2.19.2,3.14.6.95.4,1.66.83,2.13,1.3.66.68,1.2,1.51,1.63,2.5.29.69.44,1.5.44,2.41v1.19Zm-3.1-2.8c-.43-.8-.99-1.4-1.68-1.8-.69-.4-1.52-.6-2.47-.6s-1.77.2-2.46.6c-.69.4-1.26,1-1.7,1.8h8.31Z"/>
  <path class="cls-1" d="m136.34,57.14h-11.98c-.67,0-1.16-.13-1.44-.39s-.43-.6-.43-1.02.14-.74.43-1,.77-.39,1.44-.39h11.98c.67,0,1.16.13,1.44.39s.43.6.43,1.02-.14.75-.43,1.01-.77.39-1.44.39Zm0,5.28h-11.98c-.67,0-1.16-.13-1.44-.38-.29-.25-.43-.59-.43-1.01s.14-.76.43-1.02.77-.39,1.44-.39h11.98c.67,0,1.16.13,1.44.39s.43.6.43,1.02-.14.76-.43,1.01c-.29.26-.77.38-1.44.38Z"/>
  <path class="cls-2" d="m144.12,49.1h3.32l-4.21,6.75c-.24.38-.49.56-.75.56-.24,0-.45-.08-.63-.25-.18-.16-.27-.34-.27-.52,0-.15.04-.34.12-.55l2.42-6Zm5.88,0h3.32l-4.21,6.75c-.24.38-.49.56-.75.56-.24,0-.45-.08-.63-.25-.18-.16-.27-.34-.27-.52,0-.15.04-.34.12-.55l2.42-6Z"/>
  <path class="cls-2" d="m165.37,48.21v15.34h2.83c.67,0,1.16.13,1.44.39s.43.6.43,1.02-.14.75-.43,1.01-.77.39-1.44.39h-8.46c-.67,0-1.16-.13-1.44-.39s-.43-.6-.43-1.02.14-.74.43-1,.77-.39,1.44-.39h2.83v-11.69l-2.5.66c-.4.11-.7.16-.9.16-.36,0-.66-.14-.92-.42-.26-.28-.39-.63-.39-1.04,0-.37.1-.67.29-.88.19-.21.59-.4,1.2-.57l6.03-1.56Z"/>
  <path class="cls-2" d="m186.86,55.95v3.08c0,1.82-.53,3.57-1.58,5.24s-2.56,2.5-4.52,2.5c-1.13,0-2.08-.25-2.86-.74-.78-.5-1.52-1.41-2.21-2.75-.7-1.34-1.05-2.75-1.05-4.25v-3.08c0-1.81.52-3.56,1.57-5.23,1.05-1.67,2.55-2.51,4.51-2.51,1.12,0,2.07.25,2.85.74s1.52,1.41,2.23,2.74c.71,1.33,1.06,2.75,1.06,4.26Zm-2.82,0c0-1.52-.42-2.85-1.27-3.99-.48-.63-1.16-.94-2.04-.94s-1.54.35-2.08,1.04c-.81,1.05-1.22,2.35-1.22,3.9v3.08c0,1.53.43,2.86,1.29,3.99.47.63,1.15.94,2.04.94.84,0,1.53-.35,2.06-1.04.81-1.05,1.22-2.35,1.22-3.9v-3.08Z"/>
  <path class="cls-2" d="m200.44,51.46h-6.41c-.04.55-.18.94-.42,1.18-.25.24-.57.36-.97.36s-.76-.14-1.02-.42c-.26-.28-.39-.76-.39-1.44v-2.49h12.17v2.8l-4.54,13.51c-.19.57-.4.94-.64,1.13-.23.19-.51.28-.84.28-.39,0-.73-.14-1-.41s-.42-.59-.42-.94c0-.2.07-.52.22-.96l4.27-12.61Z"/>
  <path class="cls-2" d="m215.78,48.21v15.34h2.83c.67,0,1.16.13,1.44.39s.43.6.43,1.02-.14.75-.43,1.01-.77.39-1.44.39h-8.46c-.67,0-1.16-.13-1.44-.39s-.43-.6-.43-1.02.14-.74.43-1,.77-.39,1.44-.39h2.83v-11.69l-2.5.66c-.4.11-.7.16-.9.16-.36,0-.66-.14-.92-.42-.26-.28-.39-.63-.39-1.04,0-.37.1-.67.29-.88.19-.21.59-.4,1.2-.57l6.03-1.56Z"/>
  <path class="cls-2" d="m228.14,49.1h3.32l-4.21,6.75c-.24.38-.49.56-.75.56-.24,0-.45-.08-.63-.25-.18-.16-.27-.34-.27-.52,0-.15.04-.34.12-.55l2.42-6Zm5.88,0h3.32l-4.21,6.75c-.24.38-.49.56-.75.56-.24,0-.45-.08-.63-.25-.18-.16-.27-.34-.27-.52,0-.15.04-.34.12-.55l2.42-6Z"/>
  <path class="cls-1" d="m253.73,48.99l-8.98,19.36c-.23.48-.43.8-.62.94-.24.19-.52.29-.86.29-.38,0-.71-.14-.99-.41s-.42-.58-.42-.93c0-.25.11-.61.33-1.08l9.01-19.35c.23-.48.43-.8.6-.94.25-.19.53-.29.86-.29.38,0,.71.13.98.4.27.27.41.58.41.92,0,.25-.11.61-.33,1.08Z"/>
  <path class="cls-1" d="m267.72,58.37l-9.08-5.03c-.46-.25-.76-.48-.91-.68-.15-.2-.23-.46-.23-.77,0-.39.14-.73.42-1.01.28-.28.62-.42,1-.42.24,0,.6.13,1.09.4l13.52,7.52-13.52,7.52c-.49.27-.86.41-1.09.41-.38,0-.72-.14-1-.42-.28-.28-.42-.62-.42-1.03,0-.31.08-.56.23-.77.15-.2.45-.43.91-.68l9.08-5.03Z"/>
</svg>